<svg xmlns="http://www.w3.org/2000/svg" fill="none" viewBox="0 0 345 402" height="402" width="345">
<path fill="#F1F1F1" d="M277.059 120.154C276.29 122.127 275.285 123.455 274.84 125.129C274.421 126.725 274.481 135.323 274.69 140.78C277.873 145.869 279.41 153.249 279.81 161.338C280.36 172.493 287.995 185.916 287.995 193.655C287.995 198.685 283.821 207.261 276.354 210.107C278.791 229.269 275.599 251.578 274.426 253.242C275.954 260.063 279.805 282.181 282.929 299.792C300.823 278.875 313.71 255.029 320.021 229.383C328.838 193.364 324.659 153.813 308.958 124.528L277.059 120.154Z"></path>
<path fill="black" d="M315.069 370.042C313.396 367.728 288.818 328.995 287.272 323.074C285.858 317.654 276.968 264.547 274.439 253.242C273.116 253.52 270.138 253.288 266.309 252.706C254.268 262.805 256.846 310.255 257.724 312.561C258.752 315.289 300.795 376.222 304.397 379.041C307.989 379.051 315.565 373.389 315.069 370.042Z"></path>
<path fill="black" d="M272.916 253.37C264.358 253.37 234.242 246.358 230.004 242.138C230.459 251.287 236.689 303.248 237.512 310.646C238.394 318.59 252.013 382.711 253.218 384.312C254.423 385.912 263.59 385.567 265.172 384.766C266.755 383.966 262.08 317.922 262.08 313.134C262.08 308.577 273.276 268.18 272.916 253.37Z"></path>
<path fill="#F1F1F1" d="M289.418 99.0641C270.733 82.1848 244.855 75.0092 215.753 71.6625V107.09L221.032 107.813C222.219 105.994 223.706 104.603 224.693 104.571C225.479 105.126 226.384 106.758 227.203 108.663L266.586 114.047V113.565C266.586 113.074 266.682 112.587 266.87 112.132C267.058 111.678 267.334 111.265 267.681 110.918C268.029 110.57 268.442 110.294 268.896 110.106C269.35 109.919 269.837 109.822 270.329 109.823H270.784C271.275 109.822 271.762 109.919 272.216 110.106C272.671 110.294 273.083 110.57 273.431 110.918C273.779 111.265 274.054 111.678 274.242 112.132C274.43 112.587 274.526 113.074 274.526 113.565V115.134L274.89 115.179C275.076 113.911 275.344 112.515 276.781 112.824C277.236 112.915 277.523 114.238 277.663 115.552L306.029 119.427C301.511 111.868 295.915 105.008 289.418 99.0641Z"></path>
<path fill="#F1F1F1" d="M230.436 113.779L228.981 113.583C229.275 114.496 229.481 115.436 229.595 116.389C229.726 115.477 230.011 114.595 230.436 113.779Z"></path>
<path fill="#F1F1F1" d="M266.936 118.771L234.819 114.379C234.454 117.346 233.323 120.167 231.536 122.564C231.668 126.038 236.083 160.447 236.797 162.438C237.343 163.975 242.29 172.065 244.528 176.23C244.999 176.16 245.479 176.16 245.951 176.23C246.919 176.385 249.043 179.795 251.012 184.329C252.294 183.457 253.731 182.84 255.245 182.51V171.142C249.693 169.05 245.619 162.202 245.619 154.067C245.603 151.16 246.149 148.277 247.229 145.577C247.025 144.719 246.923 143.84 246.924 142.958C246.924 137.529 252.713 133.809 262.698 133.809C263.744 133.805 264.786 133.913 265.809 134.132C266.613 129.498 267.441 124.756 267.728 123.551C268.391 120.713 266.368 118.921 266.936 118.771Z"></path>
<path fill="#F1F1F1" d="M230.004 242.138C229.767 241.933 229.596 241.662 229.513 241.36C227.949 232.948 231.937 214.859 238.607 200.89C233.505 195.888 229.263 189.863 229.158 188.799C229.076 187.921 229.613 186.78 230.522 185.538C228.294 181.723 224.611 172.92 224.156 170.583C223.638 167.881 222.337 127.502 222.337 125.11C222.337 122.718 219.163 116.711 219.163 113.11C219.165 112.822 219.186 112.535 219.227 112.251L215.753 111.796V218.338C215.753 219.676 215.489 221.002 214.977 222.238C214.464 223.475 213.713 224.598 212.767 225.545C211.82 226.491 210.696 227.242 209.459 227.753C208.222 228.265 206.897 228.528 205.558 228.528H53.3668C52.0278 228.527 50.7022 228.262 49.4657 227.748C48.2292 227.234 47.1061 226.482 46.1605 225.534C45.215 224.585 44.4656 223.46 43.9551 222.223C43.4446 220.985 43.1831 219.658 43.1855 218.319V79.1195C35.4097 82.5436 28.5571 86.9453 22.9003 92.602C-3.99202 119.576 -3.82832 174.852 6.26653 231.293C16.4341 287.719 36.542 345.233 76.9214 367.077C117.301 388.922 177.784 374.935 225.529 347.133C231.356 343.732 236.981 340.129 242.404 336.325C239.881 324.102 237.83 313.588 237.507 310.646C236.688 303.234 230.463 251.287 230.004 242.138Z"></path>
<path fill="#F1F1F1" d="M262.412 319.941C262.412 320.146 262.412 320.35 262.448 320.564L262.685 320.35L262.412 319.941Z"></path>
<path stroke-linejoin="round" stroke-linecap="round" stroke-width="0.577451" stroke="black" d="M270.806 109.805H270.347C268.28 109.805 266.605 111.48 266.605 113.547V115.47C266.605 117.537 268.28 119.213 270.347 119.213H270.806C272.873 119.213 274.549 117.537 274.549 115.47V113.547C274.549 111.48 272.873 109.805 270.806 109.805Z"></path>
<path stroke-linejoin="round" stroke-linecap="round" stroke-width="0.577451" stroke="black" d="M255.25 182.473V171.11"></path>
<path stroke-linejoin="round" stroke-linecap="round" stroke-width="0.577451" stroke="black" d="M205.576 55.9105H53.3668C47.7363 55.9105 43.1719 60.4749 43.1719 66.1054V218.315C43.1719 223.945 47.7363 228.51 53.3668 228.51H205.576C211.207 228.51 215.771 223.945 215.771 218.315V66.1054C215.771 60.4749 211.207 55.9105 205.576 55.9105Z"></path>
<path fill="#005AE1" d="M140.26 134.555C142.628 132.382 144.285 129.544 145.013 126.413C145.741 123.283 145.507 120.005 144.341 117.01C143.175 114.015 141.131 111.441 138.478 109.627C135.825 107.813 132.686 106.842 129.472 106.842C126.257 106.842 123.118 107.813 120.465 109.627C117.812 111.441 115.768 114.015 114.602 117.01C113.436 120.005 113.202 123.283 113.93 126.413C114.658 129.544 116.315 132.382 118.683 134.555L106.392 184.397H152.537L140.26 134.555Z"></path>
<path stroke-linejoin="round" stroke-linecap="round" stroke-width="0.577451" stroke="black" d="M74.0613 55.9106C74.1936 41.3018 80.0898 27.3364 90.4668 17.0529C100.844 6.7694 114.862 1 129.472 1C144.081 1 158.099 6.7694 168.476 17.0529C178.853 27.3364 184.75 41.3018 184.882 55.9106"></path>
<path stroke-linejoin="round" stroke-linecap="round" stroke-width="0.577451" stroke="black" d="M258.811 171.769C266.093 171.769 271.997 163.829 271.997 154.035C271.997 144.241 266.093 136.301 258.811 136.301C251.528 136.301 245.624 144.241 245.624 154.035C245.624 163.829 251.528 171.769 258.811 171.769Z"></path>
<path stroke-linejoin="round" stroke-linecap="round" stroke-width="0.577451" stroke="black" d="M238.621 200.922C231.932 214.882 227.948 232.971 229.526 241.392C230.336 245.739 268.596 254.511 274.444 253.283C276.522 250.455 285.003 182.319 257.028 182.319C254.874 182.382 252.787 183.081 251.03 184.329"></path>
<path stroke-linejoin="round" stroke-linecap="round" stroke-width="0.577451" stroke="black" d="M254.482 205.014C257.96 197.23 248.37 176.617 245.956 176.226C241.031 175.43 228.785 184.866 229.172 188.831C229.308 190.241 236.697 200.363 243.723 205.237"></path>
<path fill="#005AE1" d="M329.761 122.645L168.419 100.602L167.789 105.211L329.131 127.254L329.761 122.645Z"></path>
<path fill="#005AE1" d="M177.655 106.557L167.788 105.209L165.964 118.558L175.831 119.906L177.655 106.557Z"></path>
<path fill="#005AE1" d="M187.157 107.857L181.85 107.132L180.026 120.481L185.334 121.207L187.157 107.857Z"></path>
<path stroke-linejoin="round" stroke-linecap="round" stroke-width="0.577451" stroke="black" d="M274.976 145.109C274.598 142.954 274.257 127.334 274.839 125.129C275.421 122.923 276.995 121.314 277.7 118.021C277.941 116.889 277.559 112.97 276.79 112.806C275.135 112.451 275.039 114.306 274.821 115.671C273.975 120.322 272.252 119.472 271.456 119.363C270.66 119.254 267.928 118.781 267.032 118.758C266.136 118.735 268.419 120.577 267.723 123.519C267.177 125.834 264.613 141.253 264.085 143.777C266 143.85 274.976 145.109 274.976 145.109Z"></path>
<path fill="#005AE1" d="M196.215 109.095L190.908 108.37L189.084 121.719L194.391 122.444L196.215 109.095Z"></path>
<path fill="#005AE1" d="M196.217 109.094L167.792 105.211L167.146 109.941L195.57 113.825L196.217 109.094Z"></path>
<path fill="#005AE1" d="M334.067 113.311C331.702 112.988 329.295 113.374 327.149 114.42C325.004 115.465 323.216 117.124 322.013 119.185C320.81 121.247 320.246 123.618 320.39 126.001C320.535 128.383 321.383 130.669 322.827 132.569C324.271 134.47 326.246 135.899 328.502 136.677C330.759 137.455 333.195 137.547 335.504 136.94C337.812 136.334 339.889 135.056 341.471 133.27C343.054 131.483 344.071 129.267 344.394 126.902C344.608 125.332 344.511 123.734 344.109 122.201C343.706 120.668 343.005 119.229 342.046 117.967C341.087 116.705 339.889 115.644 338.52 114.845C337.151 114.046 335.638 113.525 334.067 113.311ZM340.574 126.379C340.354 127.99 339.661 129.498 338.584 130.715C337.506 131.932 336.092 132.801 334.52 133.214C332.948 133.627 331.289 133.564 329.752 133.034C328.216 132.504 326.871 131.53 325.889 130.235C324.906 128.941 324.329 127.384 324.231 125.762C324.133 124.139 324.519 122.524 325.338 121.121C326.158 119.718 327.376 118.589 328.838 117.878C330.299 117.167 331.938 116.905 333.549 117.126C335.707 117.422 337.66 118.563 338.977 120.298C340.295 122.033 340.869 124.221 340.574 126.379Z"></path>
<path stroke-linejoin="round" stroke-linecap="round" stroke-width="0.577451" stroke="black" d="M314.423 371.22L324.564 384.084L312.673 400.909L301.468 401L311.64 387.467L306.061 378.109L314.423 371.22Z" clip-rule="evenodd" fill-rule="evenodd"></path>
<path stroke-linejoin="round" stroke-linecap="round" stroke-width="0.577451" stroke="black" d="M264.104 384.193L264.8 400.996H231.505L255.123 390.946L255.555 384.193"></path>
<path stroke-linejoin="round" stroke-linecap="round" stroke-width="0.577451" stroke="black" d="M230.531 185.547C228.303 181.728 224.62 172.929 224.165 170.592C223.647 167.891 222.346 127.511 222.346 125.119C222.346 122.727 219.163 116.711 219.163 113.11C219.163 109.509 222.828 104.625 224.693 104.561C226.684 105.975 229.449 114.27 229.576 116.384C230.272 111.837 233.564 110.791 234.465 110.791C235.365 110.791 235.247 117.816 231.518 122.546C231.65 126.02 236.065 160.429 236.779 162.42C237.325 163.953 242.272 172.042 244.509 176.212"></path>
<path stroke-linejoin="round" stroke-linecap="round" stroke-width="0.577451" stroke="black" d="M230.531 185.547C228.303 181.728 224.62 172.929 224.165 170.592C223.647 167.891 222.346 127.511 222.346 125.119C222.346 122.727 219.163 116.711 219.163 113.11C219.163 109.509 222.828 104.625 224.693 104.561C226.684 105.975 229.449 114.27 229.576 116.384C230.272 111.837 233.564 110.791 234.465 110.791C235.365 110.791 235.247 117.816 231.518 122.546C231.65 126.02 236.065 160.429 236.779 162.42C237.325 163.953 242.272 172.042 244.509 176.212"></path>
<path fill="black" d="M279.81 161.361C279.069 146.355 274.403 133.8 262.703 133.8C252.699 133.8 246.929 137.52 246.929 142.949C246.929 148.378 250.385 152.044 256.023 154.235C256.393 153.761 256.877 153.389 257.43 153.154C257.983 152.919 258.587 152.828 259.185 152.89C259.783 152.953 260.355 153.166 260.847 153.511C261.34 153.855 261.736 154.32 262 154.86C262.264 155.4 262.386 155.998 262.354 156.598C262.323 157.199 262.139 157.781 261.821 158.291C261.502 158.8 261.059 159.221 260.533 159.512C260.007 159.803 259.416 159.956 258.815 159.956C258.663 159.954 258.511 159.942 258.36 159.919C258.724 163.839 259.456 165.003 259.456 168.85C259.456 179.864 257.578 174.357 257.578 193.373C257.578 204.841 262.38 211.08 271.22 211.08C281.911 211.08 288.045 199.771 288.045 193.678C288.008 185.916 280.36 172.492 279.81 161.361Z"></path>
<path stroke-linejoin="round" stroke-linecap="round" stroke-width="0.577451" stroke="black" d="M255.541 154.995C255.816 154.339 256.282 153.781 256.878 153.393C257.475 153.005 258.174 152.806 258.885 152.82C259.596 152.835 260.286 153.063 260.866 153.474C261.446 153.886 261.888 154.463 262.136 155.13C262.384 155.796 262.426 156.522 262.257 157.213C262.087 157.903 261.713 158.527 261.185 159.003C260.656 159.479 259.996 159.784 259.292 159.881C258.587 159.977 257.87 159.859 257.233 159.542"></path>
</svg>
